<svg xmlns="http://www.w3.org/2000/svg" width="1600" height="900" viewBox="0 0 1600 900"><rect width="100%" height="100%" fill="#FFFFFF"/><text x="110.0" y="58.0" font-family="Arial, sans-serif" font-size="34" font-weight="bold" fill="#17211B" text-anchor="start">Duration Sensitivity of Successful-Closure P90</text><text x="110.0" y="91.0" font-family="Arial, sans-serif" font-size="20" font-weight="normal" fill="#52635A" text-anchor="start">Bars show change from the authoritative baseline</text><line x1="1030.0" y1="135" x2="1030.0" y2="805" stroke="#25352D" stroke-width="3"/><rect x="630.0" y="169.8" width="400.0" height="26.8" fill="#176B5B"/><rect x="1030.0" y="169.8" width="400.0" height="26.8" fill="#D97706"/><text x="552.0" y="209.0" font-family="Arial, sans-serif" font-size="19" font-weight="normal" fill="#17211B" text-anchor="end">e45 S4 -&gt; S5</text><text x="630.0" y="189.9" font-family="Arial, sans-serif" font-size="16" font-weight="normal" fill="#176B5B" text-anchor="middle">-7</text><text x="1430.0" y="242.2" font-family="Arial, sans-serif" font-size="16" font-weight="normal" fill="#D97706" text-anchor="middle">+7</text><rect x="972.9" y="303.8" width="57.1" height="26.8" fill="#176B5B"/><rect x="1030.0" y="303.8" width="114.3" height="26.8" fill="#D97706"/><text x="552.0" y="343.0" font-family="Arial, sans-serif" font-size="19" font-weight="normal" fill="#17211B" text-anchor="end">e24 S2 -&gt; S4</text><text x="972.9" y="323.9" font-family="Arial, sans-serif" font-size="16" font-weight="normal" fill="#176B5B" text-anchor="middle">-1</text><text x="1144.3" y="376.2" font-family="Arial, sans-serif" font-size="16" font-weight="normal" fill="#D97706" text-anchor="middle">+2</text><rect x="972.9" y="437.8" width="57.1" height="26.8" fill="#176B5B"/><rect x="1030.0" y="437.8" width="57.1" height="26.8" fill="#D97706"/><text x="552.0" y="477.0" font-family="Arial, sans-serif" font-size="19" font-weight="normal" fill="#17211B" text-anchor="end">e12 S1 -&gt; S2</text><text x="972.9" y="457.9" font-family="Arial, sans-serif" font-size="16" font-weight="normal" fill="#176B5B" text-anchor="middle">-1</text><text x="1087.1" y="510.2" font-family="Arial, sans-serif" font-size="16" font-weight="normal" fill="#D97706" text-anchor="middle">+1</text><rect x="972.9" y="571.8" width="57.1" height="26.8" fill="#176B5B"/><rect x="1030.0" y="571.8" width="57.1" height="26.8" fill="#D97706"/><text x="552.0" y="611.0" font-family="Arial, sans-serif" font-size="19" font-weight="normal" fill="#17211B" text-anchor="end">e56 S5 -&gt; S6</text><text x="972.9" y="591.9" font-family="Arial, sans-serif" font-size="16" font-weight="normal" fill="#176B5B" text-anchor="middle">-1</text><text x="1087.1" y="644.2" font-family="Arial, sans-serif" font-size="16" font-weight="normal" fill="#D97706" text-anchor="middle">+1</text><rect x="972.9" y="705.8" width="57.1" height="26.8" fill="#176B5B"/><rect x="1030.0" y="705.8" width="57.1" height="26.8" fill="#D97706"/><text x="552.0" y="745.0" font-family="Arial, sans-serif" font-size="19" font-weight="normal" fill="#17211B" text-anchor="end">e67 S6 -&gt; S7</text><text x="972.9" y="725.9" font-family="Arial, sans-serif" font-size="16" font-weight="normal" fill="#176B5B" text-anchor="middle">-1</text><text x="1087.1" y="778.2" font-family="Arial, sans-serif" font-size="16" font-weight="normal" fill="#D97706" text-anchor="middle">+1</text><line x1="570.0" y1="805" x2="570.0" y2="815" stroke="#25352D"/><text x="570.0" y="843.0" font-family="Arial, sans-serif" font-size="17" font-weight="normal" fill="#17211B" text-anchor="middle">-8.05</text><line x1="685.0" y1="805" x2="685.0" y2="815" stroke="#25352D"/><text x="685.0" y="843.0" font-family="Arial, sans-serif" font-size="17" font-weight="normal" fill="#17211B" text-anchor="middle">-6.04</text><line x1="800.0" y1="805" x2="800.0" y2="815" stroke="#25352D"/><text x="800.0" y="843.0" font-family="Arial, sans-serif" font-size="17" font-weight="normal" fill="#17211B" text-anchor="middle">-4.02</text><line x1="915.0" y1="805" x2="915.0" y2="815" stroke="#25352D"/><text x="915.0" y="843.0" font-family="Arial, sans-serif" font-size="17" font-weight="normal" fill="#17211B" text-anchor="middle">-2.01</text><line x1="1030.0" y1="805" x2="1030.0" y2="815" stroke="#25352D"/><text x="1030.0" y="843.0" font-family="Arial, sans-serif" font-size="17" font-weight="normal" fill="#17211B" text-anchor="middle">0</text><line x1="1145.0" y1="805" x2="1145.0" y2="815" stroke="#25352D"/><text x="1145.0" y="843.0" font-family="Arial, sans-serif" font-size="17" font-weight="normal" fill="#17211B" text-anchor="middle">2.01</text><line x1="1260.0" y1="805" x2="1260.0" y2="815" stroke="#25352D"/><text x="1260.0" y="843.0" font-family="Arial, sans-serif" font-size="17" font-weight="normal" fill="#17211B" text-anchor="middle">4.03</text><line x1="1375.0" y1="805" x2="1375.0" y2="815" stroke="#25352D"/><text x="1375.0" y="843.0" font-family="Arial, sans-serif" font-size="17" font-weight="normal" fill="#17211B" text-anchor="middle">6.04</text><line x1="1490.0" y1="805" x2="1490.0" y2="815" stroke="#25352D"/><text x="1490.0" y="843.0" font-family="Arial, sans-serif" font-size="17" font-weight="normal" fill="#17211B" text-anchor="middle">8.05</text><text x="1030.0" y="865.0" font-family="Arial, sans-serif" font-size="22" font-weight="bold" fill="#17211B" text-anchor="middle">Change in P90 (working days)</text><rect x="1220" y="55" width="22" height="16" fill="#176B5B"/><text x="1252.0" y="70.0" font-family="Arial, sans-serif" font-size="18" font-weight="normal" fill="#17211B" text-anchor="start">Low scenario</text><rect x="1365" y="55" width="22" height="16" fill="#D97706"/><text x="1397.0" y="70.0" font-family="Arial, sans-serif" font-size="18" font-weight="normal" fill="#17211B" text-anchor="start">High scenario</text></svg>