<svg xmlns="http://www.w3.org/2000/svg" width="1600" height="900" viewBox="0 0 1600 900"><rect width="100%" height="100%" fill="#FFFFFF"/><text x="110.0" y="58.0" font-family="Arial, sans-serif" font-size="34" font-weight="bold" fill="#17211B" text-anchor="start">Random-Seed Robustness</text><line x1="170" y1="760" x2="1490" y2="760" stroke="#25352D" stroke-width="2"/><line x1="170" y1="145" x2="170" y2="760" stroke="#25352D" stroke-width="2"/><line x1="207.4" y1="145" x2="207.4" y2="760" stroke="#E1E8E4"/><text x="207.4" y="794.0" font-family="Arial, sans-serif" font-size="18" font-weight="normal" fill="#17211B" text-anchor="middle">101</text><line x1="345.7" y1="145" x2="345.7" y2="760" stroke="#E1E8E4"/><text x="345.7" y="794.0" font-family="Arial, sans-serif" font-size="18" font-weight="normal" fill="#17211B" text-anchor="middle">202</text><line x1="484.1" y1="145" x2="484.1" y2="760" stroke="#E1E8E4"/><text x="484.1" y="794.0" font-family="Arial, sans-serif" font-size="18" font-weight="normal" fill="#17211B" text-anchor="middle">303</text><line x1="622.5" y1="145" x2="622.5" y2="760" stroke="#E1E8E4"/><text x="622.5" y="794.0" font-family="Arial, sans-serif" font-size="18" font-weight="normal" fill="#17211B" text-anchor="middle">404</text><line x1="760.8" y1="145" x2="760.8" y2="760" stroke="#E1E8E4"/><text x="760.8" y="794.0" font-family="Arial, sans-serif" font-size="18" font-weight="normal" fill="#17211B" text-anchor="middle">505</text><line x1="899.2" y1="145" x2="899.2" y2="760" stroke="#E1E8E4"/><text x="899.2" y="794.0" font-family="Arial, sans-serif" font-size="18" font-weight="normal" fill="#17211B" text-anchor="middle">606</text><line x1="1037.5" y1="145" x2="1037.5" y2="760" stroke="#E1E8E4"/><text x="1037.5" y="794.0" font-family="Arial, sans-serif" font-size="18" font-weight="normal" fill="#17211B" text-anchor="middle">707</text><line x1="1175.9" y1="145" x2="1175.9" y2="760" stroke="#E1E8E4"/><text x="1175.9" y="794.0" font-family="Arial, sans-serif" font-size="18" font-weight="normal" fill="#17211B" text-anchor="middle">808</text><line x1="1314.3" y1="145" x2="1314.3" y2="760" stroke="#E1E8E4"/><text x="1314.3" y="794.0" font-family="Arial, sans-serif" font-size="18" font-weight="normal" fill="#17211B" text-anchor="middle">909</text><line x1="1452.6" y1="145" x2="1452.6" y2="760" stroke="#E1E8E4"/><text x="1452.6" y="794.0" font-family="Arial, sans-serif" font-size="18" font-weight="normal" fill="#17211B" text-anchor="middle">1,010</text><line x1="170" y1="760.0" x2="1490" y2="760.0" stroke="#E1E8E4"/><text x="154.0" y="766.0" font-family="Arial, sans-serif" font-size="18" font-weight="normal" fill="#17211B" text-anchor="end">120.6</text><line x1="170" y1="637.0" x2="1490" y2="637.0" stroke="#E1E8E4"/><text x="154.0" y="643.0" font-family="Arial, sans-serif" font-size="18" font-weight="normal" fill="#17211B" text-anchor="end">127.6</text><line x1="170" y1="514.0" x2="1490" y2="514.0" stroke="#E1E8E4"/><text x="154.0" y="520.0" font-family="Arial, sans-serif" font-size="18" font-weight="normal" fill="#17211B" text-anchor="end">134.5</text><line x1="170" y1="391.0" x2="1490" y2="391.0" stroke="#E1E8E4"/><text x="154.0" y="397.0" font-family="Arial, sans-serif" font-size="18" font-weight="normal" fill="#17211B" text-anchor="end">141.5</text><line x1="170" y1="268.0" x2="1490" y2="268.0" stroke="#E1E8E4"/><text x="154.0" y="274.0" font-family="Arial, sans-serif" font-size="18" font-weight="normal" fill="#17211B" text-anchor="end">148.4</text><line x1="170" y1="145.0" x2="1490" y2="145.0" stroke="#E1E8E4"/><text x="154.0" y="151.0" font-family="Arial, sans-serif" font-size="18" font-weight="normal" fill="#17211B" text-anchor="end">155.4</text><polyline points="207.4,682.8 345.7,665.1 484.1,682.8 622.5,682.8 760.8,682.8 899.2,682.8 1037.5,682.8 1175.9,700.5 1314.3,682.8 1452.6,682.8" fill="none" stroke="#176B5B" stroke-width="4"/><circle cx="207.4" cy="682.8" r="6" fill="#176B5B"/><circle cx="345.7" cy="665.1" r="6" fill="#176B5B"/><circle cx="484.1" cy="682.8" r="6" fill="#176B5B"/><circle cx="622.5" cy="682.8" r="6" fill="#176B5B"/><circle cx="760.8" cy="682.8" r="6" fill="#176B5B"/><circle cx="899.2" cy="682.8" r="6" fill="#176B5B"/><circle cx="1037.5" cy="682.8" r="6" fill="#176B5B"/><circle cx="1175.9" cy="700.5" r="6" fill="#176B5B"/><circle cx="1314.3" cy="682.8" r="6" fill="#176B5B"/><circle cx="1452.6" cy="682.8" r="6" fill="#176B5B"/><line x1="1180" y1="70" x2="1212" y2="70" stroke="#176B5B" stroke-width="5"/><text x="1222.0" y="76.0" font-family="Arial, sans-serif" font-size="18" font-weight="normal" fill="#17211B" text-anchor="start">P90</text><polyline points="207.4,257.7 345.7,204.5 484.1,257.7 622.5,275.4 760.8,257.7 899.2,239.9 1037.5,257.7 1175.9,275.4 1314.3,222.2 1452.6,275.4" fill="none" stroke="#D97706" stroke-width="4"/><circle cx="207.4" cy="257.7" r="6" fill="#D97706"/><circle cx="345.7" cy="204.5" r="6" fill="#D97706"/><circle cx="484.1" cy="257.7" r="6" fill="#D97706"/><circle cx="622.5" cy="275.4" r="6" fill="#D97706"/><circle cx="760.8" cy="257.7" r="6" fill="#D97706"/><circle cx="899.2" cy="239.9" r="6" fill="#D97706"/><circle cx="1037.5" cy="257.7" r="6" fill="#D97706"/><circle cx="1175.9" cy="275.4" r="6" fill="#D97706"/><circle cx="1314.3" cy="222.2" r="6" fill="#D97706"/><circle cx="1452.6" cy="275.4" r="6" fill="#D97706"/><line x1="1180" y1="98" x2="1212" y2="98" stroke="#D97706" stroke-width="5"/><text x="1222.0" y="104.0" font-family="Arial, sans-serif" font-size="18" font-weight="normal" fill="#17211B" text-anchor="start">P95</text><text x="830.0" y="850.0" font-family="Arial, sans-serif" font-size="22" font-weight="bold" fill="#17211B" text-anchor="middle">Root seed</text><text x="42.0" y="452.5" font-family="Arial, sans-serif" font-size="22" font-weight="bold" fill="#17211B" text-anchor="middle" transform="rotate(-90 42 452.5)">Successful-closure time (working days)</text></svg>