<svg xmlns="http://www.w3.org/2000/svg" width="1600" height="900" viewBox="0 0 1600 900"><rect width="100%" height="100%" fill="#FFFFFF"/><text x="110.0" y="58.0" font-family="Arial, sans-serif" font-size="34" font-weight="bold" fill="#17211B" text-anchor="start">Bimodality Classification versus Early-Exit Probability</text><text x="110.0" y="91.0" font-family="Arial, sans-serif" font-size="20" font-weight="normal" fill="#52635A" text-anchor="start">KDE mode prominence and Gaussian-mixture BIC classification</text><line x1="190" y1="740.0" x2="1480" y2="740.0" stroke="#E1E8E4"/><text x="172.0" y="747.0" font-family="Arial, sans-serif" font-size="19" font-weight="normal" fill="#17211B" text-anchor="end">unimodal</text><line x1="190" y1="541.6666666666667" x2="1480" y2="541.6666666666667" stroke="#E1E8E4"/><text x="172.0" y="548.7" font-family="Arial, sans-serif" font-size="19" font-weight="normal" fill="#17211B" text-anchor="end">indeterminate</text><line x1="190" y1="343.33333333333337" x2="1480" y2="343.33333333333337" stroke="#E1E8E4"/><text x="172.0" y="350.3" font-family="Arial, sans-serif" font-size="19" font-weight="normal" fill="#17211B" text-anchor="end">weakly bimodal</text><line x1="190" y1="145.0" x2="1480" y2="145.0" stroke="#E1E8E4"/><text x="172.0" y="152.0" font-family="Arial, sans-serif" font-size="19" font-weight="normal" fill="#17211B" text-anchor="end">clearly bimodal</text><polyline points="190.0,343.3 319.0,145.0 448.0,145.0 577.0,145.0 706.0,145.0 835.0,145.0 964.0,145.0 1093.0,145.0 1222.0,145.0 1351.0,145.0 1480.0,145.0" fill="none" stroke="#A23B72" stroke-width="4"/><circle cx="190.0" cy="343.3" r="8" fill="#A23B72"/><circle cx="319.0" cy="145.0" r="8" fill="#A23B72"/><circle cx="448.0" cy="145.0" r="8" fill="#A23B72"/><circle cx="577.0" cy="145.0" r="8" fill="#A23B72"/><circle cx="706.0" cy="145.0" r="8" fill="#A23B72"/><circle cx="835.0" cy="145.0" r="8" fill="#A23B72"/><circle cx="964.0" cy="145.0" r="8" fill="#A23B72"/><circle cx="1093.0" cy="145.0" r="8" fill="#A23B72"/><circle cx="1222.0" cy="145.0" r="8" fill="#A23B72"/><circle cx="1351.0" cy="145.0" r="8" fill="#A23B72"/><circle cx="1480.0" cy="145.0" r="8" fill="#A23B72"/><text x="190.0" y="776.0" font-family="Arial, sans-serif" font-size="18" font-weight="normal" fill="#17211B" text-anchor="middle">0.00</text><text x="448.0" y="776.0" font-family="Arial, sans-serif" font-size="18" font-weight="normal" fill="#17211B" text-anchor="middle">0.10</text><text x="706.0" y="776.0" font-family="Arial, sans-serif" font-size="18" font-weight="normal" fill="#17211B" text-anchor="middle">0.20</text><text x="964.0" y="776.0" font-family="Arial, sans-serif" font-size="18" font-weight="normal" fill="#17211B" text-anchor="middle">0.30</text><text x="1222.0" y="776.0" font-family="Arial, sans-serif" font-size="18" font-weight="normal" fill="#17211B" text-anchor="middle">0.40</text><text x="1480.0" y="776.0" font-family="Arial, sans-serif" font-size="18" font-weight="normal" fill="#17211B" text-anchor="middle">0.50</text><text x="835.0" y="850.0" font-family="Arial, sans-serif" font-size="22" font-weight="bold" fill="#17211B" text-anchor="middle">Early-exit probability</text></svg>